<svg version="1.1" id="Layer_1" xmlns="http://www.w3.org/2000/svg" xmlns:xlink="http://www.w3.org/1999/xlink" x="0px" y="0px"
	 width="100%" viewBox="0 0 1024 736" enable-background="new 0 0 1024 736" xml:space="preserve">
<path fill="#000000" opacity="1.000000" stroke="none" 
	d="
M564.181396,125.712402 
	C596.696655,145.704865 617.058228,173.968109 624.566589,211.077866 
	C626.806885,222.150574 627.972229,233.481979 626.440186,244.849777 
	C626.013611,248.015182 626.522400,250.694885 628.904053,253.060455 
	C633.414673,257.540588 635.115173,263.206207 635.147583,269.426483 
	C635.194397,278.423889 635.239014,287.422241 635.159424,296.419098 
	C635.061096,307.534576 629.192749,316.027618 618.636292,319.472656 
	C614.920715,320.685272 614.132812,322.685516 614.296692,326.039246 
	C614.836365,337.081635 612.617188,347.204926 604.529663,355.442566 
	C598.481812,361.602692 591.095337,364.475555 582.636230,364.992401 
	C581.971802,365.033020 581.303589,365.012878 580.637146,365.017426 
	C563.763977,365.132782 563.763977,365.132629 551.428528,376.075653 
	C547.898071,379.207581 548.393127,389.078766 551.951538,392.959259 
	C557.995728,399.550415 565.388245,403.262268 573.968140,405.779480 
	C593.608459,411.541534 612.971680,418.240631 632.536987,424.268372 
	C654.876404,431.150757 667.813904,444.940948 671.433533,469.023834 
	C675.853638,498.432648 682.823242,527.458557 688.701965,556.647705 
	C692.075134,573.396301 690.970581,589.138794 678.805908,602.569519 
	C673.275940,608.675049 666.501465,612.765015 658.756348,615.184937 
	C649.382935,618.113647 639.937317,620.828064 630.454529,623.380859 
	C627.034851,624.301453 625.560730,626.034241 625.219116,629.566772 
	C623.809082,644.147461 623.504395,644.327026 609.011414,644.323792 
	C535.030396,644.307251 461.049347,644.295349 387.068298,644.284729 
	C377.951935,644.283386 375.994354,642.747070 374.967163,633.570251 
	C373.744019,622.642456 372.993378,624.775940 365.280182,622.478516 
	C356.506653,619.865417 347.601532,617.623901 338.984711,614.568970 
	C317.583496,606.981384 305.852661,586.472717 310.127533,564.237854 
	C315.683716,535.338562 321.507172,506.490753 327.176605,477.613129 
	C328.233582,472.229156 329.104919,466.808746 330.064728,461.405701 
	C333.158813,443.988281 343.786224,433.072479 359.847168,426.791229 
	C376.927673,420.111237 394.607971,415.271393 412.044495,409.683594 
	C416.800049,408.159607 421.495239,406.342163 426.352264,405.263062 
	C434.666260,403.415863 441.289154,399.182007 446.817291,392.801788 
	C448.670959,390.662354 449.525787,388.592529 449.867920,385.766296 
	C450.642090,379.370911 448.180420,375.708649 442.775391,372.052307 
	C426.304596,360.910187 414.905304,345.454041 408.185974,326.749573 
	C406.679810,322.556763 404.635956,320.952942 400.249298,321.266571 
	C395.443481,321.610138 390.586670,321.436096 385.760376,321.259766 
	C373.473663,320.810760 363.877563,310.876984 363.787933,298.541870 
	C363.715240,288.544952 363.776123,278.547119 363.756287,268.549744 
	C363.744141,262.443024 365.635742,257.048218 369.986572,252.721527 
	C372.051239,250.668350 372.795868,248.517426 372.575562,245.588821 
	C369.639252,206.558182 382.128082,173.032013 409.644287,145.416321 
	C434.865814,120.103661 465.915314,107.839035 501.508087,108.030312 
	C523.712097,108.149643 544.488586,114.663712 564.181396,125.712402 
M563.500000,488.030518 
	C556.501221,488.032562 549.502502,488.036987 542.503723,488.036224 
	C487.680206,488.030090 432.856720,488.019836 378.033203,488.020721 
	C372.211334,488.020813 372.049927,488.435333 372.758667,493.953247 
	C375.324341,513.928711 377.724304,533.925293 380.221069,553.909668 
	C383.129089,577.185791 386.204437,600.442261 388.888947,623.743958 
	C389.414276,628.303833 391.425018,628.948608 395.354919,628.938232 
	C431.348175,628.843018 467.341827,628.927368 503.335388,628.934814 
	C536.996094,628.941711 570.656799,628.895874 604.317383,628.941956 
	C607.977295,628.946960 610.407288,628.737000 611.020264,623.903503 
	C612.799866,609.871643 614.271790,595.804077 616.058411,581.777832 
	C619.801147,552.394287 623.698181,523.032227 627.077148,493.601715 
	C627.620789,488.866882 626.326233,487.940399 621.989014,487.978546 
	C602.827332,488.147064 583.663208,488.038208 563.500000,488.030518 
M336.792542,506.124512 
	C333.040405,525.227539 329.163330,544.307068 325.572662,563.440369 
	C322.232483,581.238892 327.979370,593.891663 342.615997,599.720215 
	C350.925323,603.029114 359.753876,605.039001 368.365082,607.577942 
	C369.291565,607.851074 370.367004,607.913879 371.199951,606.859192 
	C371.468811,597.945923 369.537476,589.133362 368.512085,580.266968 
	C364.767670,547.888916 360.568146,515.563477 356.541962,483.217987 
	C355.665283,476.175018 358.445435,472.957336 365.633392,472.715179 
	C367.298401,472.659119 368.965851,472.660400 370.632172,472.660217 
	C455.287903,472.651947 539.943665,472.645813 624.599365,472.642761 
	C627.765564,472.642639 630.932739,472.631195 634.097778,472.702423 
	C641.392700,472.866608 644.099792,475.876740 643.359131,483.007019 
	C643.049500,485.987488 642.616821,488.954956 642.259094,491.930634 
	C638.684692,521.661072 635.114990,551.392090 631.541992,581.122681 
	C630.497131,589.816956 628.927368,598.464417 628.875610,608.100830 
	C639.587769,605.152344 650.068909,603.145691 659.622681,598.519348 
	C669.136169,593.912476 674.444885,585.983582 675.008545,575.131897 
	C675.322754,569.082458 674.541382,563.148865 673.398376,557.273743 
	C667.581421,527.373779 661.233276,497.569427 655.947449,467.577148 
	C653.427002,453.275818 645.976868,444.631470 632.530579,440.057617 
	C612.029663,433.084015 591.315552,426.802490 570.693420,420.221588 
	C565.799805,418.660004 563.499878,420.186249 561.157104,424.234558 
	C554.150024,436.342743 546.829041,448.269623 539.605530,460.252136 
	C535.887939,466.418945 533.279846,467.216919 526.937195,463.572754 
	C519.863281,459.508453 512.769714,455.419800 506.066864,450.788727 
	C501.509552,447.640045 497.898102,447.209381 493.158020,450.566284 
	C486.785126,455.079437 479.838715,458.786926 473.109894,462.792297 
	C465.293915,467.444702 463.063873,466.839386 458.330841,458.936951 
	C451.141205,446.932953 443.932495,434.940308 436.762512,422.924591 
	C435.313568,420.496368 433.888245,418.531433 430.460785,419.661133 
	C407.851593,427.113220 384.670135,432.804047 362.552124,441.771423 
	C353.405029,445.479889 347.313263,451.995453 345.312103,461.676758 
	C342.316040,476.171021 339.754517,490.755096 336.792542,506.124512 
M575.876221,323.359009 
	C579.156372,314.913879 581.442261,306.147705 581.641663,297.132568 
	C582.028503,279.645020 581.760437,262.143677 581.882629,244.648880 
	C581.904358,241.547180 580.850281,239.858658 577.846741,238.716431 
	C566.411499,234.367859 556.925659,227.145432 548.678833,218.199249 
	C547.700195,217.137573 546.991882,215.657684 544.957275,215.476471 
	C544.495605,215.867706 543.763794,216.300140 543.280640,216.924866 
	C531.994934,231.517136 516.941467,240.838943 499.943909,247.050827 
	C475.164795,256.106506 449.436523,260.245819 423.071533,260.096161 
	C418.482330,260.070129 416.907837,261.450287 417.056580,266.055817 
	C417.352203,275.210999 416.964874,284.387238 417.214203,293.545135 
	C418.071960,325.048035 432.061890,348.893188 459.264374,364.912537 
	C476.947174,375.325836 495.905457,378.210815 515.979736,374.553162 
	C514.284973,373.976776 512.522400,373.729340 510.791412,373.341217 
	C503.387360,371.681061 497.916992,365.288422 497.794220,358.212280 
	C497.659607,350.453857 502.489868,343.953430 510.424469,342.509460 
	C517.967468,341.136688 525.674438,341.255157 533.278687,342.567841 
	C535.958740,343.030487 538.348083,344.363556 540.172546,346.381561 
	C542.011230,348.415161 544.156006,349.159607 546.834351,349.049561 
	C549.827820,348.926575 552.840332,348.911774 555.828125,349.105103 
	C558.981628,349.309143 561.136353,348.085205 563.025452,345.586273 
	C568.076660,338.904297 572.431885,331.846436 575.876221,323.359009 
M555.051086,202.459030 
	C561.619873,210.683105 568.774353,218.195526 579.334045,222.753693 
	C579.113098,218.916199 578.346741,215.899185 577.274536,212.969879 
	C562.190735,171.760452 521.048279,152.768021 482.075531,160.939789 
	C443.552856,169.017181 418.958801,199.732422 417.264435,239.285065 
	C417.094055,243.262650 417.978790,244.954849 422.384216,244.929199 
	C446.401306,244.789337 469.854004,241.212433 492.591736,233.517212 
	C509.685303,227.732193 524.748352,218.761322 534.784546,203.160706 
	C543.038452,190.330505 545.629089,190.042770 555.051086,202.459030 
M601.397278,188.081436 
	C579.776855,141.441986 528.449951,116.296463 480.107117,125.258881 
	C425.636200,135.357422 387.367249,180.892502 387.194305,235.734085 
	C387.164337,245.240402 387.160706,245.127167 397.096436,244.804947 
	C400.483337,244.695084 402.030365,243.518875 401.806030,240.067291 
	C401.457428,234.705002 402.342255,229.418396 403.331360,224.199646 
	C413.101990,172.646423 457.937683,139.290054 510.130035,144.653442 
	C558.743958,149.649109 595.618103,189.173462 597.175171,237.954712 
	C597.391785,244.739471 597.391785,244.742355 604.372192,244.737183 
	C605.538147,244.736313 606.705017,244.659332 607.869934,244.684601 
	C610.606262,244.743958 611.645874,243.394730 611.759644,240.705551 
	C612.526245,222.586609 609.368469,205.246719 601.397278,188.081436 
M523.736755,388.418091 
	C504.211792,393.521515 484.943207,391.796661 465.789398,385.214661 
	C464.737396,390.649719 465.040466,394.394806 468.724457,397.943634 
	C477.961578,406.841858 486.890930,416.066162 495.763489,425.332245 
	C498.380829,428.065674 500.205353,428.566681 502.978424,425.521179 
	C508.135834,419.857056 513.631226,414.500916 518.978455,409.009338 
	C523.275391,404.596466 527.532959,400.144958 531.862915,395.764832 
	C534.321411,393.277863 534.627380,390.038330 533.236816,387.452240 
	C531.758301,384.702606 529.088501,387.302277 526.947388,387.569885 
	C526.132385,387.671783 525.348022,388.018860 523.736755,388.418091 
M401.911316,300.047058 
	C401.891907,291.059692 401.997498,282.069946 401.824982,273.085541 
	C401.536407,258.058075 404.545502,260.316895 388.467377,260.161682 
	C382.219238,260.101379 379.316498,263.064484 379.122284,269.306732 
	C378.915344,275.958893 378.940765,282.619354 378.928070,289.276276 
	C378.895477,306.385071 379.710358,307.015411 397.102509,306.830994 
	C401.717651,306.782043 403.166443,305.225372 401.911316,300.047058 
M619.602478,298.648682 
	C619.661438,291.156586 619.527893,283.656952 619.820251,276.173950 
	C620.396423,261.424561 618.382324,258.820435 602.212769,259.263092 
	C598.241760,259.371765 596.997742,260.894531 597.039917,264.658295 
	C597.148193,274.315796 597.155579,283.979950 596.918640,293.634430 
	C596.610840,306.179443 596.491516,306.146667 609.204407,305.790710 
	C613.886780,305.659576 617.754456,304.380951 619.602478,298.648682 
M522.416992,426.888184 
	C519.476624,430.391235 515.497192,433.030090 513.125000,437.901489 
	C518.578735,441.246155 523.863770,444.487335 529.668213,448.047089 
	C536.567322,436.592468 543.266785,425.735657 549.664673,414.704010 
	C551.936646,410.786591 547.312744,409.911652 545.699829,407.793671 
	C544.062012,405.643005 542.257812,406.568085 540.666321,408.199280 
	C534.749390,414.263763 528.813354,420.309509 522.416992,426.888184 
M478.059601,442.546509 
	C480.481201,440.648529 483.648834,439.715393 485.531616,437.122131 
	C485.228027,436.426819 485.140594,435.877136 484.823395,435.550842 
	C475.798553,426.268463 466.727325,417.031189 457.725189,407.726929 
	C455.803986,405.741272 454.167297,406.449280 452.585571,407.952942 
	C450.678192,409.766144 447.256500,410.980530 449.319092,414.672455 
	C451.341705,418.292847 453.477417,421.851440 455.619904,425.403137 
	C460.050659,432.748199 464.518921,440.070648 469.142365,447.683319 
	C472.300751,445.874176 474.872864,444.400879 478.059601,442.546509 
M581.720154,348.727875 
	C590.329407,349.216614 597.224243,344.203735 598.648438,336.104370 
	C599.276489,332.532501 599.356934,328.859802 599.604736,325.227325 
	C599.744385,323.179626 599.712463,321.106476 596.984619,320.683746 
	C594.340942,320.274109 592.589844,321.244232 591.561401,323.842773 
	C589.614319,328.762726 587.446167,333.594696 585.432800,338.489105 
	C584.073181,341.794403 581.345520,344.509918 581.720154,348.727875 
M526.078003,358.667419 
	C526.463501,358.441345 526.855225,358.224396 527.224182,357.973938 
	C527.257751,357.951111 527.164001,357.602325 527.097961,357.591156 
	C523.276184,356.945129 519.475403,356.930328 515.688904,358.712769 
	C518.919556,358.712769 522.150146,358.712769 526.078003,358.667419 
z"/>
</svg>